<svg width="96" height="64" viewBox="0 0 96 64" xmlns="http://www.w3.org/2000/svg">
  <rect x="2" y="2" width="92" height="60" rx="16" fill="#F8FAFC"/>
  <circle cx="30" cy="32" r="18" fill="#FFF1ED"/>
  <g transform="translate(18,20) scale(1.0)">
    <path fill="#EE4C2C" d="M12.005 0L4.952 7.053a9.865 9.865 0 000 14.022 9.866 9.866 0 0014.022 0c3.984-3.9 3.986-10.205.085-14.023l-1.744 1.743c2.904 2.905 2.904 7.634 0 10.538s-7.634 2.904-10.538 0-2.904-7.634 0-10.538l4.647-4.646.582-.665zm3.568 3.899a1.327 1.327 0 00-1.327 1.327 1.327 1.327 0 001.327 1.328A1.327 1.327 0 0016.9 5.226 1.327 1.327 0 0015.573 3.9z"/>
  </g>
  <line x1="48" y1="16" x2="48" y2="48" stroke="#CBD5E1" stroke-width="2"/>
  <circle cx="66" cy="32" r="18" fill="#E6FFFB"/>
  <g transform="translate(54,20) scale(1.0)">
    <path fill="#009688" d="M12 .0387C5.3729.0384.0003 5.3931 0 11.9988c-.001 6.6066 5.372 11.9628 12 11.9625 6.628.0003 12.001-5.3559 12-11.9625-.0003-6.6057-5.3729-11.9604-12-11.96m-.829 5.4153h7.55l-7.5805 5.3284h5.1828L5.279 18.5436q2.9466-6.5444 5.892-13.0896"/>
  </g>
</svg>
