<?xml version="1.0" encoding="UTF-8"?>
<!-- Mind Compass 罹섎┛?????붾㈃??紐⑤컮????紐⑹뾽 ?ㅽ??쇰줈 洹몃┛ SVG?? -->
<svg width="354" height="812" viewBox="18 16 354 812" fill="none" xmlns="http://www.w3.org/2000/svg">
  <rect width="390" height="844" fill="#F6F7FB"/>

  <!-- app canvas -->
  <rect x="18" y="16" width="354" height="812" rx="28" fill="#FFFFFF"/>

  <!-- status / header -->
  <text x="42" y="64" fill="#20242C" font-family="Pretendard, Apple SD Gothic Neo, sans-serif" font-size="15" font-weight="700">媛먯젙?섏묠諛?/text>
  <circle cx="344" cy="58" r="6" fill="#DADFE8"/>
  <path d="M42 92 L34 100 L42 108" stroke="#2C3440" stroke-width="2.3" stroke-linecap="round" stroke-linejoin="round"/>

  <!-- month header -->
  <text x="42" y="140" fill="#20242C" font-family="Pretendard, Apple SD Gothic Neo, sans-serif" font-size="29" font-weight="800">2024??5??/text>
  <g transform="translate(276 115)">
    <rect width="72" height="22" rx="11" fill="#FFF8D8"/>
    <circle cx="14" cy="11" r="4" fill="#FFD645"/>
    <text x="24" y="15" fill="#6A5B10" font-family="Pretendard, Apple SD Gothic Neo, sans-serif" font-size="10" font-weight="700">湲곕줉??18??/text>
  </g>

  <!-- weekday labels -->
  <g fill="#9097A6" font-family="Pretendard, Apple SD Gothic Neo, sans-serif" font-size="10" font-weight="700">
    <text x="45" y="177">??/text>
    <text x="91" y="177">??/text>
    <text x="137" y="177">??/text>
    <text x="183" y="177">??/text>
    <text x="229" y="177">紐?/text>
    <text x="275" y="177">湲?/text>
    <text x="321" y="177">??/text>
  </g>

  <!-- calendar dates -->
  <g font-family="Pretendard, Apple SD Gothic Neo, sans-serif" font-size="14" font-weight="600">
    <text x="45" y="213" fill="#C0C6D2">1</text>
    <text x="91" y="213" fill="#313946">2</text>
    <text x="137" y="213" fill="#313946">3</text>
    <text x="183" y="213" fill="#313946">4</text>
    <text x="229" y="213" fill="#313946">5</text>
    <text x="275" y="213" fill="#313946">6</text>
    <text x="321" y="213" fill="#313946">7</text>

    <text x="45" y="257" fill="#313946">8</text>
    <text x="91" y="257" fill="#313946">9</text>
    <text x="133" y="257" fill="#313946">10</text>
    <text x="179" y="257" fill="#313946">11</text>
    <text x="225" y="257" fill="#313946">12</text>
    <text x="271" y="257" fill="#313946">13</text>
    <text x="317" y="257" fill="#313946">14</text>

    <text x="41" y="301" fill="#313946">15</text>
    <text x="87" y="301" fill="#313946">16</text>
    <text x="133" y="301" fill="#313946">17</text>
    <rect x="176" y="278" width="28" height="28" rx="8" fill="#FFFFFF" stroke="#78A8F4" stroke-width="2"/>
    <text x="184" y="297" fill="#4D7FE0">18</text>
    <text x="225" y="301" fill="#313946">19</text>
    <text x="271" y="301" fill="#313946">20</text>
    <text x="317" y="301" fill="#313946">21</text>

    <text x="41" y="345" fill="#313946">22</text>
    <text x="87" y="345" fill="#313946">23</text>
    <text x="133" y="345" fill="#313946">24</text>
    <text x="179" y="345" fill="#313946">25</text>
    <text x="225" y="345" fill="#313946">26</text>
    <text x="271" y="345" fill="#313946">27</text>
    <text x="317" y="345" fill="#313946">28</text>

    <text x="41" y="389" fill="#313946">29</text>
    <text x="87" y="389" fill="#313946">30</text>
    <text x="133" y="389" fill="#313946">31</text>
  </g>

  <!-- emotion dots -->
  <g>
    <circle cx="98" cy="225" r="4" fill="#FFD645"/>
    <circle cx="144" cy="225" r="4" fill="#73C8F6"/>
    <circle cx="190" cy="225" r="4" fill="#7C7EF2"/>
    <circle cx="236" cy="225" r="4" fill="#F5A1A1"/>
    <circle cx="282" cy="225" r="4" fill="#80D595"/>
    <circle cx="328" cy="225" r="4" fill="#FFD645"/>

    <circle cx="52" cy="269" r="4" fill="#F5A1A1"/>
    <circle cx="144" cy="269" r="4" fill="#FFD645"/>
    <circle cx="190" cy="269" r="4" fill="#73C8F6"/>
    <circle cx="236" cy="269" r="4" fill="#7C7EF2"/>
    <circle cx="328" cy="269" r="4" fill="#80D595"/>

    <circle cx="52" cy="313" r="4" fill="#F5A1A1"/>
    <circle cx="98" cy="313" r="4" fill="#FFD645"/>
    <circle cx="144" cy="313" r="4" fill="#73C8F6"/>
    <circle cx="236" cy="313" r="4" fill="#80D595"/>
    <circle cx="282" cy="313" r="4" fill="#F5A1A1"/>
    <circle cx="328" cy="313" r="4" fill="#FFD645"/>

    <circle cx="98" cy="357" r="4" fill="#80D595"/>
    <circle cx="144" cy="357" r="4" fill="#73C8F6"/>
    <circle cx="190" cy="357" r="4" fill="#FFD645"/>
    <circle cx="236" cy="357" r="4" fill="#7C7EF2"/>
    <circle cx="282" cy="357" r="4" fill="#F5A1A1"/>

    <circle cx="52" cy="401" r="4" fill="#FFD645"/>
    <circle cx="98" cy="401" r="4" fill="#73C8F6"/>
    <circle cx="144" cy="401" r="4" fill="#80D595"/>
  </g>

  <!-- selected day summary card -->
  <rect x="34" y="431" width="322" height="132" rx="18" fill="#F8FAFF" stroke="#E8EEF8"/>
  <text x="50" y="463" fill="#1E2633" font-family="Pretendard, Apple SD Gothic Neo, sans-serif" font-size="18" font-weight="800">5??18???붿슂??/text>
  <text x="50" y="486" fill="#8A95A6" font-family="Pretendard, Apple SD Gothic Neo, sans-serif" font-size="11" font-weight="700">?좏깮 ?좎쭨 ?붿빟</text>
  <text x="50" y="514" fill="#374150" font-family="Pretendard, Apple SD Gothic Neo, sans-serif" font-size="13" font-weight="500">?ㅻ뒛 湲곕줉???덉뼱??</text>
  <text x="50" y="535" fill="#5B6575" font-family="Pretendard, Apple SD Gothic Neo, sans-serif" font-size="12" font-weight="500">議곌툑 吏爾ㅼ?留?留덉쓬??媛?쇱븠?섍퀬,</text>
  <text x="50" y="553" fill="#5B6575" font-family="Pretendard, Apple SD Gothic Neo, sans-serif" font-size="12" font-weight="500">??곸뿉???덉젙媛먯쓣 ?뚮났???먮쫫??蹂댁뿬??</text>

  <rect x="50" y="576" width="72" height="24" rx="12" fill="#FFF8D8"/>
  <text x="72" y="592" fill="#7B6818" font-family="Pretendard, Apple SD Gothic Neo, sans-serif" font-size="11" font-weight="700">遺덉븞</text>
  <rect x="128" y="576" width="82" height="24" rx="12" fill="#E8F7ED"/>
  <text x="151" y="592" fill="#3E7B57" font-family="Pretendard, Apple SD Gothic Neo, sans-serif" font-size="11" font-weight="700">?뚮났以?/text>

  <!-- add diary card -->
  <rect x="34" y="580" width="322" height="120" rx="18" fill="#FFFFFF" stroke="#E9EDF3"/>
  <text x="50" y="612" fill="#1F2835" font-family="Pretendard, Apple SD Gothic Neo, sans-serif" font-size="16" font-weight="800">?ㅻ뒛 湲곕줉???④꺼蹂댁꽭??/text>
  <text x="50" y="635" fill="#7E8795" font-family="Pretendard, Apple SD Gothic Neo, sans-serif" font-size="12" font-weight="500">?좏깮???좎쭨??媛먯젙怨??앷컖??吏㏐쾶 ?곸뼱蹂댁꽭??</text>
  <rect x="50" y="654" width="140" height="34" rx="17" fill="#5E9BF5"/>
  <text x="88" y="676" fill="#FFFFFF" font-family="Pretendard, Apple SD Gothic Neo, sans-serif" font-size="13" font-weight="700">?쇨린 ?묒꽦?섍린</text>

  <!-- floating action button -->
  <circle cx="330" cy="720" r="24" fill="#5E9BF5"/>
  <path d="M330 708V732" stroke="#FFFFFF" stroke-width="2.8" stroke-linecap="round"/>
  <path d="M318 720H342" stroke="#FFFFFF" stroke-width="2.8" stroke-linecap="round"/>

  <!-- bottom navigation -->
  <rect x="18" y="756" width="354" height="72" rx="0" fill="#FFFFFF"/>
  <path d="M18 756H372" stroke="#EFF2F7"/>

  <g>
    <rect x="54" y="777" width="18" height="18" rx="4" fill="#5E9BF5"/>
    <text x="42" y="812" fill="#5E9BF5" font-family="Pretendard, Apple SD Gothic Neo, sans-serif" font-size="11" font-weight="700">罹섎┛??/text>
  </g>
  <g opacity="0.45">
    <rect x="142" y="777" width="18" height="18" rx="4" fill="#ABB4C0"/>
    <text x="134" y="812" fill="#8C95A2" font-family="Pretendard, Apple SD Gothic Neo, sans-serif" font-size="11" font-weight="700">湲곕줉</text>
  </g>
  <g opacity="0.45">
    <rect x="230" y="777" width="18" height="18" rx="4" fill="#ABB4C0"/>
    <text x="221" y="812" fill="#8C95A2" font-family="Pretendard, Apple SD Gothic Neo, sans-serif" font-size="11" font-weight="700">???/text>
  </g>
  <g opacity="0.45">
    <rect x="318" y="777" width="18" height="18" rx="4" fill="#ABB4C0"/>
    <text x="309" y="812" fill="#8C95A2" font-family="Pretendard, Apple SD Gothic Neo, sans-serif" font-size="11" font-weight="700">由ы룷??/text>
  </g>
</svg>

