<?xml version="1.0" encoding="UTF-8"?>
<!-- 留덉씤??而댄띁??罹섎┛??????諛섏쓳??紐⑹뾽 -->
<svg width="1392" height="976" viewBox="24 24 1392 976" fill="none" xmlns="http://www.w3.org/2000/svg">
  <rect width="1440" height="1024" fill="#F4F7FB"/>
  <rect x="24" y="24" width="248" height="976" rx="28" fill="#FFFFFF"/>
  <text x="56" y="82" fill="#1F2A37" font-family="Pretendard, Apple SD Gothic Neo, sans-serif" font-size="28" font-weight="800">Mind Compass</text>
  <text x="56" y="112" fill="#7D8998" font-family="Pretendard, Apple SD Gothic Neo, sans-serif" font-size="14" font-weight="500">媛먯젙 湲곕줉怨??뚭퀬瑜??댁뼱二쇰뒗 怨듦컙</text>
  <rect x="44" y="156" width="208" height="52" rx="18" fill="#EAF3FF"/>
  <text x="74" y="188" fill="#4E86E6" font-family="Pretendard, Apple SD Gothic Neo, sans-serif" font-size="16" font-weight="700">罹섎┛??/text>
  <text x="74" y="252" fill="#919BA9" font-family="Pretendard, Apple SD Gothic Neo, sans-serif" font-size="16" font-weight="600">?쇨린</text>
  <text x="74" y="308" fill="#919BA9" font-family="Pretendard, Apple SD Gothic Neo, sans-serif" font-size="16" font-weight="600">梨꾪똿</text>
  <text x="74" y="364" fill="#919BA9" font-family="Pretendard, Apple SD Gothic Neo, sans-serif" font-size="16" font-weight="600">由ы룷??/text>
  <rect x="296" y="24" width="1120" height="92" rx="28" fill="#FFFFFF"/>
  <text x="336" y="79" fill="#1F2A37" font-family="Pretendard, Apple SD Gothic Neo, sans-serif" font-size="30" font-weight="800">媛먯젙 罹섎┛??/text>
  <text x="336" y="104" fill="#7D8998" font-family="Pretendard, Apple SD Gothic Neo, sans-serif" font-size="14" font-weight="500">?대쾲 ??媛먯젙 ?먮쫫怨??좎쭨蹂?湲곕줉 ?곹깭瑜??뺤씤?댁슂</text>
  <rect x="1202" y="46" width="174" height="48" rx="24" fill="#5E9BF5"/>
  <text x="1254" y="76" fill="#FFFFFF" font-family="Pretendard, Apple SD Gothic Neo, sans-serif" font-size="15" font-weight="700">?쇨린 ?묒꽦?섍린</text>
  <rect x="296" y="136" width="698" height="610" rx="28" fill="#FFFFFF"/>
  <text x="336" y="190" fill="#1F2A37" font-family="Pretendard, Apple SD Gothic Neo, sans-serif" font-size="32" font-weight="800">2026??3??/text>
  <rect x="836" y="160" width="118" height="30" rx="15" fill="#FFF7D6"/>
  <text x="866" y="180" fill="#7C6A20" font-family="Pretendard, Apple SD Gothic Neo, sans-serif" font-size="13" font-weight="700">湲곕줉 18??/text>
  <g fill="#8B95A4" font-family="Pretendard, Apple SD Gothic Neo, sans-serif" font-size="14" font-weight="700">
    <text x="344" y="240">SUN</text><text x="438" y="240">MON</text><text x="530" y="240">TUE</text>
    <text x="622" y="240">WED</text><text x="714" y="240">THU</text><text x="806" y="240">FRI</text><text x="898" y="240">SAT</text>
  </g>
  <g font-family="Pretendard, Apple SD Gothic Neo, sans-serif" font-size="20" font-weight="600" fill="#2C3543">
    <text x="352" y="308">2</text><text x="444" y="308">3</text><text x="536" y="308">4</text><text x="628" y="308">5</text><text x="720" y="308">6</text><text x="812" y="308">7</text><text x="904" y="308">8</text>
    <text x="352" y="398">9</text><text x="444" y="398">10</text><text x="530" y="398">11</text><text x="622" y="398">12</text><text x="714" y="398">13</text><text x="806" y="398">14</text><text x="898" y="398">15</text>
    <text x="344" y="488">16</text><text x="436" y="488">17</text><rect x="596" y="452" width="54" height="54" rx="18" fill="#FFFFFF" stroke="#78A8F4" stroke-width="3"/><text x="614" y="488" fill="#4D7FE0">18</text><text x="712" y="488">19</text><text x="804" y="488">20</text><text x="896" y="488">21</text>
    <text x="344" y="578">23</text><text x="436" y="578">24</text><text x="528" y="578">25</text><text x="620" y="578">26</text><text x="712" y="578">27</text><text x="804" y="578">28</text><text x="896" y="578">29</text>
  </g>
  <g><circle cx="446" cy="324" r="7" fill="#9CC3FF"/><circle cx="538" cy="324" r="7" fill="#FFE27C"/><circle cx="814" cy="324" r="7" fill="#B6E3BE"/><circle cx="722" cy="414" r="7" fill="#FFAEB3"/><circle cx="906" cy="414" r="7" fill="#9CC3FF"/><circle cx="446" cy="504" r="7" fill="#FFE27C"/><circle cx="722" cy="504" r="7" fill="#B6E3BE"/><circle cx="814" cy="504" r="7" fill="#9CC3FF"/><circle cx="538" cy="594" r="7" fill="#FFAEB3"/></g>
  <rect x="1020" y="136" width="396" height="294" rx="28" fill="#FFFFFF"/>
  <text x="1052" y="186" fill="#1F2A37" font-family="Pretendard, Apple SD Gothic Neo, sans-serif" font-size="24" font-weight="800">3??18???섏슂??/text>
  <text x="1052" y="216" fill="#7D8998" font-family="Pretendard, Apple SD Gothic Neo, sans-serif" font-size="13" font-weight="500">???좎쭨??湲곕줉 ?붿빟</text>
  <rect x="1052" y="238" width="110" height="28" rx="14" fill="#FFF7D6"/><text x="1085" y="256" fill="#7C6A20" font-family="Pretendard, Apple SD Gothic Neo, sans-serif" font-size="12" font-weight="700">遺덉븞</text>
  <rect x="1172" y="238" width="110" height="28" rx="14" fill="#EAF3FF"/><text x="1206" y="256" fill="#4E86E6" font-family="Pretendard, Apple SD Gothic Neo, sans-serif" font-size="12" font-weight="700">吏묒쨷 ???/text>
  <rect x="1052" y="286" width="332" height="88" rx="18" fill="#F8FAFF" stroke="#E7EDF8"/>
  <text x="1072" y="316" fill="#4D5767" font-family="Pretendard, Apple SD Gothic Neo, sans-serif" font-size="13" font-weight="500">?ㅻ뒛? ?댁빞 ???쇱씠 留롮븯?붾뜲 留덉쓬??怨꾩냽 遺덉븞?덈떎.</text>
  <text x="1072" y="338" fill="#4D5767" font-family="Pretendard, Apple SD Gothic Neo, sans-serif" font-size="13" font-weight="500">AI 遺꾩꽍 寃곌낵, 湲댁옣怨??쇰줈媛 媛숈씠 ?믨쾶 ?섑??щ떎.</text>
  <rect x="1052" y="390" width="156" height="44" rx="22" fill="#5E9BF5"/><text x="1097" y="418" fill="#FFFFFF" font-family="Pretendard, Apple SD Gothic Neo, sans-serif" font-size="14" font-weight="700">?곸꽭 蹂닿린</text>
  <rect x="1224" y="390" width="160" height="44" rx="22" fill="#F3F6FA"/><text x="1266" y="418" fill="#5A6A7E" font-family="Pretendard, Apple SD Gothic Neo, sans-serif" font-size="14" font-weight="700">梨꾪똿 ?댁뼱媛湲?/text>
  <rect x="1020" y="454" width="396" height="292" rx="28" fill="#FFFDF8" stroke="#EFE4C6"/>
  <text x="1052" y="504" fill="#1F2A37" font-family="Pretendard, Apple SD Gothic Neo, sans-serif" font-size="24" font-weight="800">?대쾲 ???⑦꽩</text>
  <text x="1052" y="534" fill="#8B846E" font-family="Pretendard, Apple SD Gothic Neo, sans-serif" font-size="13" font-weight="500">湲곕줉??留롮? ?좉낵 媛먯젙 媛뺣룄瑜??④퍡 ?뺤씤?댁슂</text>
  <rect x="1052" y="564" width="332" height="72" rx="18" fill="#FFFFFF"/><text x="1072" y="593" fill="#1F2A37" font-family="Pretendard, Apple SD Gothic Neo, sans-serif" font-size="15" font-weight="700">???媛먯젙</text><text x="1072" y="616" fill="#6B7685" font-family="Pretendard, Apple SD Gothic Neo, sans-serif" font-size="13" font-weight="500">遺덉븞 4??쨌 李⑤텇 3??쨌 吏移?3??/text>
  <rect x="1052" y="650" width="332" height="56" rx="18" fill="#FFFFFF"/><text x="1072" y="683" fill="#1F2A37" font-family="Pretendard, Apple SD Gothic Neo, sans-serif" font-size="15" font-weight="700">?꾪뿕???붿빟</text><text x="1186" y="683" fill="#8B846E" font-family="Pretendard, Apple SD Gothic Neo, sans-serif" font-size="13" font-weight="600">以묒쐞??2??쨌 怨좎쐞??1??/text>
  <rect x="296" y="770" width="1120" height="230" rx="28" fill="#FFFFFF"/>
  <text x="336" y="818" fill="#1F2A37" font-family="Pretendard, Apple SD Gothic Neo, sans-serif" font-size="24" font-weight="800">諛섏쓳??硫붾え</text>
  <text x="336" y="852" fill="#677384" font-family="Pretendard, Apple SD Gothic Neo, sans-serif" font-size="15" font-weight="500">紐⑤컮?쇱뿉?쒕뒗 罹섎┛?붿? ?붿빟 移대뱶媛 ?몃줈濡??볦씠怨? ?뱀뿉?쒕뒗 醫뚯륫 罹섎┛?붿? ?곗륫 ?붿빟 ?⑤꼸 援ъ“濡??뺤옣?⑸땲??</text>
  <text x="336" y="880" fill="#677384" font-family="Pretendard, Apple SD Gothic Neo, sans-serif" font-size="15" font-weight="500">二?CTA???곷떒???먭퀬, ?몃? ?≪뀡? ?곗륫 移대뱶 ?대???諛곗튂???붾㈃ ?꾪솚??以꾩엯?덈떎.</text>
</svg>

