<?xml version="1.0" encoding="UTF-8"?>
<!-- 마인드 컴퍼스 주요 화면 모바일/웹 썸네일 보드 -->
<svg width="1600" height="1200" viewBox="0 0 1600 1200" fill="none" xmlns="http://www.w3.org/2000/svg">
  <rect width="1600" height="1200" fill="#F3F6FB"/>

  <text x="64" y="78" fill="#1F2A37" font-family="Pretendard, Apple SD Gothic Neo, sans-serif" font-size="34" font-weight="800">Mind Compass 주요 화면 보드</text>
  <text x="64" y="110" fill="#738094" font-family="Pretendard, Apple SD Gothic Neo, sans-serif" font-size="16" font-weight="500">로그인, 캘린더, 일기, 채팅, 리포트의 모바일/웹 반응형 방향을 한 장에 정리한 목업</text>

  <rect x="52" y="150" width="1496" height="488" rx="28" fill="#FFFFFF"/>
  <text x="76" y="194" fill="#1F2A37" font-family="Pretendard, Apple SD Gothic Neo, sans-serif" font-size="24" font-weight="800">모바일 화면</text>

  <g>
    <text x="102" y="238" fill="#5F6F84" font-family="Pretendard, Apple SD Gothic Neo, sans-serif" font-size="14" font-weight="700">로그인</text>
    <rect x="88" y="254" width="214" height="340" rx="28" fill="#FFFFFF" stroke="#E6ECF4" stroke-width="2"/>
    <circle cx="195" cy="318" r="24" fill="#EAF3FF"/>
    <rect x="120" y="402" width="150" height="38" rx="12" fill="#F7F9FC" stroke="#E7EDF3"/>
    <rect x="120" y="456" width="150" height="38" rx="12" fill="#F7F9FC" stroke="#E7EDF3"/>
    <rect x="120" y="526" width="150" height="40" rx="20" fill="#5E9BF5"/>
  </g>

  <g>
    <text x="390" y="238" fill="#5F6F84" font-family="Pretendard, Apple SD Gothic Neo, sans-serif" font-size="14" font-weight="700">캘린더 홈</text>
    <rect x="376" y="254" width="214" height="340" rx="28" fill="#FFFFFF" stroke="#E6ECF4" stroke-width="2"/>
    <rect x="396" y="282" width="174" height="26" rx="13" fill="#FFF7D6"/>
    <rect x="396" y="332" width="174" height="132" rx="18" fill="#F8FAFF"/>
    <rect x="412" y="352" width="18" height="18" rx="6" fill="#EAF3FF"/>
    <rect x="442" y="352" width="18" height="18" rx="6" fill="#FFF7D6"/>
    <rect x="472" y="352" width="18" height="18" rx="6" fill="#EEF9EF"/>
    <rect x="396" y="486" width="174" height="66" rx="18" fill="#FFFDF8" stroke="#F0E6C7"/>
    <circle cx="538" cy="560" r="16" fill="#5E9BF5"/>
  </g>

  <g>
    <text x="678" y="238" fill="#5F6F84" font-family="Pretendard, Apple SD Gothic Neo, sans-serif" font-size="14" font-weight="700">일기 작성/상세</text>
    <rect x="664" y="254" width="214" height="340" rx="28" fill="#FFFFFF" stroke="#E6ECF4" stroke-width="2"/>
    <rect x="684" y="286" width="174" height="34" rx="12" fill="#F8FAFF" stroke="#E7EDF8"/>
    <rect x="684" y="334" width="174" height="98" rx="16" fill="#F8FAFF" stroke="#E7EDF8"/>
    <rect x="684" y="448" width="74" height="28" rx="14" fill="#FFF7D6"/>
    <rect x="766" y="448" width="74" height="28" rx="14" fill="#EAF3FF"/>
    <rect x="684" y="502" width="174" height="34" rx="17" fill="#5E9BF5"/>
    <rect x="684" y="546" width="174" height="28" rx="14" fill="#FFFDF8" stroke="#F0E6C7"/>
  </g>

  <g>
    <text x="966" y="238" fill="#5F6F84" font-family="Pretendard, Apple SD Gothic Neo, sans-serif" font-size="14" font-weight="700">채팅</text>
    <rect x="952" y="254" width="214" height="340" rx="28" fill="#FFFFFF" stroke="#E6ECF4" stroke-width="2"/>
    <rect x="972" y="290" width="126" height="52" rx="16" fill="#F7FBF8" stroke="#DDEEE1"/>
    <rect x="1012" y="360" width="134" height="48" rx="16" fill="#5E9BF5"/>
    <rect x="972" y="426" width="154" height="66" rx="16" fill="#FFF9EC" stroke="#F4E3B0"/>
    <rect x="972" y="548" width="154" height="24" rx="12" fill="#F3F6FA"/>
  </g>

  <g>
    <text x="1254" y="238" fill="#5F6F84" font-family="Pretendard, Apple SD Gothic Neo, sans-serif" font-size="14" font-weight="700">리포트</text>
    <rect x="1240" y="254" width="214" height="340" rx="28" fill="#FFFFFF" stroke="#E6ECF4" stroke-width="2"/>
    <rect x="1260" y="286" width="174" height="56" rx="16" fill="#F8FAFF"/>
    <rect x="1260" y="360" width="174" height="94" rx="16" fill="#FFFFFF" stroke="#E7EDF8"/>
    <path d="M1278 432 C1302 420, 1320 416, 1346 422 C1372 428, 1392 398, 1414 404" stroke="#5E9BF5" stroke-width="4" fill="none" stroke-linecap="round"/>
    <rect x="1260" y="476" width="174" height="76" rx="16" fill="#FFFDF8" stroke="#F0E6C7"/>
  </g>

  <rect x="52" y="670" width="1496" height="478" rx="28" fill="#FFFFFF"/>
  <text x="76" y="714" fill="#1F2A37" font-family="Pretendard, Apple SD Gothic Neo, sans-serif" font-size="24" font-weight="800">웹 반응형 화면</text>

  <g>
    <text x="102" y="756" fill="#5F6F84" font-family="Pretendard, Apple SD Gothic Neo, sans-serif" font-size="14" font-weight="700">캘린더 웹</text>
    <rect x="88" y="774" width="430" height="310" rx="24" fill="#FFFFFF" stroke="#E6ECF4" stroke-width="2"/>
    <rect x="106" y="792" width="82" height="274" rx="18" fill="#F8FAFF"/>
    <rect x="204" y="792" width="190" height="180" rx="18" fill="#FFFFFF" stroke="#E7EDF8"/>
    <rect x="408" y="792" width="92" height="120" rx="18" fill="#FFFDF8" stroke="#F0E6C7"/>
    <rect x="408" y="926" width="92" height="68" rx="18" fill="#FFFFFF" stroke="#E7EDF8"/>
  </g>

  <g>
    <text x="570" y="756" fill="#5F6F84" font-family="Pretendard, Apple SD Gothic Neo, sans-serif" font-size="14" font-weight="700">일기 웹</text>
    <rect x="556" y="774" width="430" height="310" rx="24" fill="#FFFFFF" stroke="#E6ECF4" stroke-width="2"/>
    <rect x="574" y="792" width="236" height="274" rx="18" fill="#FFFFFF" stroke="#E7EDF8"/>
    <rect x="590" y="812" width="204" height="30" rx="10" fill="#F8FAFF"/>
    <rect x="590" y="854" width="204" height="90" rx="14" fill="#F8FAFF"/>
    <rect x="590" y="962" width="98" height="34" rx="17" fill="#5E9BF5"/>
    <rect x="828" y="792" width="140" height="274" rx="18" fill="#F8FAFF" stroke="#E7EDF8"/>
  </g>

  <g>
    <text x="1038" y="756" fill="#5F6F84" font-family="Pretendard, Apple SD Gothic Neo, sans-serif" font-size="14" font-weight="700">채팅 / 리포트 웹</text>
    <rect x="1024" y="774" width="430" height="310" rx="24" fill="#FFFFFF" stroke="#E6ECF4" stroke-width="2"/>
    <rect x="1042" y="792" width="92" height="274" rx="18" fill="#F8FAFF"/>
    <rect x="1148" y="792" width="184" height="274" rx="18" fill="#FFFFFF" stroke="#E7EDF8"/>
    <rect x="1350" y="792" width="86" height="126" rx="18" fill="#F8FAFF"/>
    <rect x="1350" y="932" width="86" height="134" rx="18" fill="#FFFDF8" stroke="#F0E6C7"/>
  </g>
</svg>
