<?xml version="1.0" encoding="UTF-8"?>
<!-- 기술팀장 발표용 주요 기능 화면 슬라이드 -->
<svg width="1600" height="900" viewBox="0 0 1600 900" fill="none" xmlns="http://www.w3.org/2000/svg">
  <rect width="1600" height="900" fill="#F3F6FB"/>

  <text x="72" y="78" fill="#17202B" font-family="Pretendard, Apple SD Gothic Neo, sans-serif" font-size="38" font-weight="800">주요 기능 화면</text>
  <text x="72" y="114" fill="#6F7C8F" font-family="Pretendard, Apple SD Gothic Neo, sans-serif" font-size="18" font-weight="500">감정 기록, AI 상담, 회고 흐름을 화면 단위로 정리한 MVP 구조</text>

  <rect x="72" y="150" width="208" height="42" rx="21" fill="#EAF3FF"/>
  <text x="124" y="177" fill="#4E86E6" font-family="Pretendard, Apple SD Gothic Neo, sans-serif" font-size="15" font-weight="700">모바일 우선 · 웹 확장</text>
  <rect x="294" y="150" width="186" height="42" rx="21" fill="#FFF7D6"/>
  <text x="346" y="177" fill="#7B6920" font-family="Pretendard, Apple SD Gothic Neo, sans-serif" font-size="15" font-weight="700">Safety-first UX</text>

  <!-- left visual area -->
  <rect x="72" y="224" width="770" height="604" rx="28" fill="#FFFFFF"/>
  <text x="104" y="268" fill="#17202B" font-family="Pretendard, Apple SD Gothic Neo, sans-serif" font-size="24" font-weight="800">핵심 화면 흐름</text>
  <text x="104" y="298" fill="#738094" font-family="Pretendard, Apple SD Gothic Neo, sans-serif" font-size="15" font-weight="500">로그인 → 캘린더 → 일기 → 채팅 → 리포트</text>

  <path d="M170 368H744" stroke="#DCE4EF" stroke-width="2" stroke-dasharray="7 7"/>
  <circle cx="170" cy="368" r="17" fill="#FFFFFF" stroke="#DCE4EF" stroke-width="2"/>
  <circle cx="314" cy="368" r="17" fill="#FFFFFF" stroke="#DCE4EF" stroke-width="2"/>
  <circle cx="458" cy="368" r="17" fill="#FFFFFF" stroke="#DCE4EF" stroke-width="2"/>
  <circle cx="602" cy="368" r="17" fill="#FFFFFF" stroke="#DCE4EF" stroke-width="2"/>
  <circle cx="746" cy="368" r="17" fill="#FFFFFF" stroke="#DCE4EF" stroke-width="2"/>
  <text x="163" y="374" fill="#7A8798" font-family="Pretendard, Apple SD Gothic Neo, sans-serif" font-size="11" font-weight="700">1</text>
  <text x="307" y="374" fill="#7A8798" font-family="Pretendard, Apple SD Gothic Neo, sans-serif" font-size="11" font-weight="700">2</text>
  <text x="451" y="374" fill="#7A8798" font-family="Pretendard, Apple SD Gothic Neo, sans-serif" font-size="11" font-weight="700">3</text>
  <text x="595" y="374" fill="#7A8798" font-family="Pretendard, Apple SD Gothic Neo, sans-serif" font-size="11" font-weight="700">4</text>
  <text x="739" y="374" fill="#7A8798" font-family="Pretendard, Apple SD Gothic Neo, sans-serif" font-size="11" font-weight="700">5</text>

  <!-- thumbnails row -->
  <g>
    <text x="112" y="406" fill="#5D6D82" font-family="Pretendard, Apple SD Gothic Neo, sans-serif" font-size="13" font-weight="700">로그인</text>
    <rect x="100" y="422" width="116" height="220" rx="24" fill="#FFFFFF" stroke="#E7EDF5" stroke-width="2"/>
    <circle cx="158" cy="470" r="20" fill="#EAF3FF"/>
    <rect x="124" y="516" width="68" height="22" rx="8" fill="#F8FAFF"/>
    <rect x="124" y="548" width="68" height="22" rx="8" fill="#F8FAFF"/>
    <rect x="124" y="590" width="68" height="28" rx="14" fill="#5E9BF5"/>
  </g>

  <g>
    <text x="256" y="406" fill="#5D6D82" font-family="Pretendard, Apple SD Gothic Neo, sans-serif" font-size="13" font-weight="700">캘린더</text>
    <rect x="244" y="422" width="116" height="220" rx="24" fill="#FFFFFF" stroke="#E7EDF5" stroke-width="2"/>
    <rect x="266" y="446" width="72" height="18" rx="9" fill="#FFF7D6"/>
    <rect x="266" y="478" width="72" height="86" rx="14" fill="#F8FAFF"/>
    <rect x="280" y="494" width="12" height="12" rx="4" fill="#EAF3FF"/>
    <rect x="300" y="494" width="12" height="12" rx="4" fill="#FFF7D6"/>
    <rect x="320" y="494" width="12" height="12" rx="4" fill="#EEF9EF"/>
    <rect x="266" y="584" width="72" height="26" rx="10" fill="#FFFDF8" stroke="#F0E6C7"/>
  </g>

  <g>
    <text x="398" y="406" fill="#5D6D82" font-family="Pretendard, Apple SD Gothic Neo, sans-serif" font-size="13" font-weight="700">일기</text>
    <rect x="388" y="422" width="116" height="220" rx="24" fill="#FFFFFF" stroke="#E7EDF5" stroke-width="2"/>
    <rect x="410" y="446" width="72" height="20" rx="8" fill="#F8FAFF"/>
    <rect x="410" y="478" width="72" height="70" rx="12" fill="#F8FAFF"/>
    <rect x="410" y="562" width="32" height="16" rx="8" fill="#FFF7D6"/>
    <rect x="450" y="562" width="32" height="16" rx="8" fill="#EAF3FF"/>
    <rect x="410" y="592" width="72" height="22" rx="11" fill="#5E9BF5"/>
  </g>

  <g>
    <text x="542" y="406" fill="#5D6D82" font-family="Pretendard, Apple SD Gothic Neo, sans-serif" font-size="13" font-weight="700">채팅</text>
    <rect x="532" y="422" width="116" height="220" rx="24" fill="#FFFFFF" stroke="#E7EDF5" stroke-width="2"/>
    <rect x="552" y="450" width="56" height="26" rx="10" fill="#F7FBF8" stroke="#DDEEE1"/>
    <rect x="576" y="490" width="48" height="22" rx="11" fill="#5E9BF5"/>
    <rect x="552" y="528" width="62" height="32" rx="12" fill="#FFF9EC" stroke="#F4E3B0"/>
    <rect x="552" y="588" width="62" height="20" rx="10" fill="#F3F6FA"/>
  </g>

  <g>
    <text x="686" y="406" fill="#5D6D82" font-family="Pretendard, Apple SD Gothic Neo, sans-serif" font-size="13" font-weight="700">리포트</text>
    <rect x="676" y="422" width="116" height="220" rx="24" fill="#FFFFFF" stroke="#E7EDF5" stroke-width="2"/>
    <rect x="698" y="446" width="72" height="20" rx="8" fill="#F8FAFF"/>
    <path d="M704 520 C718 514, 728 510, 742 512 C756 514, 764 500, 774 502" stroke="#5E9BF5" stroke-width="3.5" fill="none" stroke-linecap="round"/>
    <rect x="698" y="548" width="72" height="26" rx="10" fill="#FFFDF8" stroke="#F0E6C7"/>
  </g>

  <!-- web layout strip -->
  <rect x="104" y="686" width="706" height="110" rx="22" fill="#F8FAFF" stroke="#E7EDF5"/>
  <text x="132" y="720" fill="#17202B" font-family="Pretendard, Apple SD Gothic Neo, sans-serif" font-size="17" font-weight="700">웹 반응형 확장</text>
  <rect x="132" y="738" width="92" height="34" rx="12" fill="#FFFFFF" stroke="#E7EDF5"/>
  <rect x="236" y="738" width="154" height="34" rx="12" fill="#FFFFFF" stroke="#E7EDF5"/>
  <rect x="402" y="738" width="120" height="34" rx="12" fill="#FFFFFF" stroke="#E7EDF5"/>
  <rect x="534" y="738" width="98" height="34" rx="12" fill="#FFFFFF" stroke="#E7EDF5"/>
  <rect x="644" y="738" width="134" height="34" rx="12" fill="#FFFDF8" stroke="#F0E6C7"/>
  <text x="132" y="785" fill="#5E6C80" font-family="Pretendard, Apple SD Gothic Neo, sans-serif" font-size="14" font-weight="500">모바일의 1열 흐름을 유지하면서, 웹에서는 보조 정보 패널을 추가해 탐색성과 회고성을 강화</text>

  <!-- right summary -->
  <rect x="874" y="224" width="654" height="604" rx="28" fill="#FFFFFF"/>
  <text x="906" y="268" fill="#17202B" font-family="Pretendard, Apple SD Gothic Neo, sans-serif" font-size="24" font-weight="800">화면별 핵심 요약</text>
  <text x="906" y="298" fill="#738094" font-family="Pretendard, Apple SD Gothic Neo, sans-serif" font-size="15" font-weight="500">설명은 짧게 유지하고, “무슨 문제를 해결하는 화면인가”가 보이게 구성</text>

  <rect x="906" y="334" width="590" height="86" rx="18" fill="#F8FAFF"/>
  <text x="934" y="366" fill="#17202B" font-family="Pretendard, Apple SD Gothic Neo, sans-serif" font-size="16" font-weight="700">로그인</text>
  <text x="934" y="392" fill="#5A6779" font-family="Pretendard, Apple SD Gothic Neo, sans-serif" font-size="14" font-weight="500">서비스 진입과 인증을 담당하는 시작 화면</text>
  <text x="1210" y="392" fill="#7C8797" font-family="Pretendard, Apple SD Gothic Neo, sans-serif" font-size="13" font-weight="500">이메일 로그인 · 회원가입 이동</text>

  <rect x="906" y="438" width="590" height="96" rx="18" fill="#F8FAFF"/>
  <text x="934" y="470" fill="#17202B" font-family="Pretendard, Apple SD Gothic Neo, sans-serif" font-size="16" font-weight="700">캘린더 홈</text>
  <text x="934" y="496" fill="#5A6779" font-family="Pretendard, Apple SD Gothic Neo, sans-serif" font-size="14" font-weight="500">월간 감정 흐름과 날짜별 기록 여부를 확인하는 허브</text>
  <text x="934" y="520" fill="#7C8797" font-family="Pretendard, Apple SD Gothic Neo, sans-serif" font-size="13" font-weight="500">월간 감정 표시 · 날짜 선택 · 일기 요약 · 작성 연결</text>

  <rect x="906" y="552" width="590" height="96" rx="18" fill="#F8FAFF"/>
  <text x="934" y="584" fill="#17202B" font-family="Pretendard, Apple SD Gothic Neo, sans-serif" font-size="16" font-weight="700">일기 작성 / 상세</text>
  <text x="934" y="610" fill="#5A6779" font-family="Pretendard, Apple SD Gothic Neo, sans-serif" font-size="14" font-weight="500">감정 기록과 AI 해석이 만나는 핵심 화면</text>
  <text x="934" y="634" fill="#7C8797" font-family="Pretendard, Apple SD Gothic Neo, sans-serif" font-size="13" font-weight="500">제목/본문 · 대표 감정 · 강도 · AI 분석 · 위험도 확인</text>

  <rect x="906" y="666" width="590" height="86" rx="18" fill="#F8FAFF"/>
  <text x="934" y="698" fill="#17202B" font-family="Pretendard, Apple SD Gothic Neo, sans-serif" font-size="16" font-weight="700">채팅</text>
  <text x="934" y="724" fill="#5A6779" font-family="Pretendard, Apple SD Gothic Neo, sans-serif" font-size="14" font-weight="500">상태별 AI 응답을 제공하는 상담형 대화 화면</text>
  <text x="1210" y="724" fill="#7C8797" font-family="Pretendard, Apple SD Gothic Neo, sans-serif" font-size="13" font-weight="500">NORMAL · SUPPORTIVE · SAFETY</text>

  <rect x="906" y="770" width="590" height="86" rx="18" fill="#F8FAFF"/>
  <text x="934" y="802" fill="#17202B" font-family="Pretendard, Apple SD Gothic Neo, sans-serif" font-size="16" font-weight="700">리포트</text>
  <text x="934" y="828" fill="#5A6779" font-family="Pretendard, Apple SD Gothic Neo, sans-serif" font-size="14" font-weight="500">감정 패턴과 위험도 변화를 회고하는 분석 화면</text>
  <text x="1210" y="828" fill="#7C8797" font-family="Pretendard, Apple SD Gothic Neo, sans-serif" font-size="13" font-weight="500">월간 요약 · 감정 추이 · 위험도 추이</text>
</svg>
