<?xml version="1.0" encoding="UTF-8"?>
<!-- 마인드 컴퍼스 리포트 웹 반응형 목업 -->
<svg width="1440" height="1024" viewBox="0 0 1440 1024" fill="none" xmlns="http://www.w3.org/2000/svg">
  <rect width="1440" height="1024" fill="#F4F7FB"/>
  <rect x="24" y="24" width="1392" height="976" rx="28" fill="#FFFFFF"/>
  <text x="60" y="84" fill="#1F2A37" font-family="Pretendard, Apple SD Gothic Neo, sans-serif" font-size="32" font-weight="800">감정 리포트</text>
  <text x="60" y="114" fill="#7D8998" font-family="Pretendard, Apple SD Gothic Neo, sans-serif" font-size="15" font-weight="500">월간 요약과 주간 흐름을 한 화면에서 회고해요</text>
  <rect x="1148" y="50" width="228" height="48" rx="24" fill="#F8FAFF" stroke="#E6ECF8"/>
  <text x="1226" y="80" fill="#4E7DDD" font-family="Pretendard, Apple SD Gothic Neo, sans-serif" font-size="15" font-weight="700">2026년 3월</text>
  <rect x="60" y="148" width="250" height="120" rx="24" fill="#F8FAFF" stroke="#E7EDF8"/><text x="88" y="188" fill="#8A94A4" font-family="Pretendard, Apple SD Gothic Neo, sans-serif" font-size="13" font-weight="700">기록 수</text><text x="88" y="236" fill="#1F2A37" font-family="Pretendard, Apple SD Gothic Neo, sans-serif" font-size="40" font-weight="800">18</text>
  <rect x="326" y="148" width="250" height="120" rx="24" fill="#F8FAFF" stroke="#E7EDF8"/><text x="354" y="188" fill="#8A94A4" font-family="Pretendard, Apple SD Gothic Neo, sans-serif" font-size="13" font-weight="700">평균 감정 강도</text><text x="354" y="236" fill="#1F2A37" font-family="Pretendard, Apple SD Gothic Neo, sans-serif" font-size="40" font-weight="800">3.6</text>
  <rect x="592" y="148" width="250" height="120" rx="24" fill="#F8FAFF" stroke="#E7EDF8"/><text x="620" y="188" fill="#8A94A4" font-family="Pretendard, Apple SD Gothic Neo, sans-serif" font-size="13" font-weight="700">대표 감정</text><text x="620" y="236" fill="#1F2A37" font-family="Pretendard, Apple SD Gothic Neo, sans-serif" font-size="34" font-weight="800">불안</text>
  <rect x="858" y="148" width="250" height="120" rx="24" fill="#F8FAFF" stroke="#E7EDF8"/><text x="886" y="188" fill="#8A94A4" font-family="Pretendard, Apple SD Gothic Neo, sans-serif" font-size="13" font-weight="700">위험도 요약</text><text x="886" y="228" fill="#1F2A37" font-family="Pretendard, Apple SD Gothic Neo, sans-serif" font-size="20" font-weight="800">중위험 2회 · 고위험 1회</text>
  <rect x="60" y="302" width="716" height="324" rx="28" fill="#FFFFFF" stroke="#E9EDF3"/>
  <text x="92" y="346" fill="#1F2A37" font-family="Pretendard, Apple SD Gothic Neo, sans-serif" font-size="24" font-weight="800">최근 7일 감정 변화</text>
  <text x="92" y="374" fill="#7D8998" font-family="Pretendard, Apple SD Gothic Neo, sans-serif" font-size="13" font-weight="600">기록된 감정 강도의 흐름을 시각적으로 확인합니다</text>
  <path d="M108 560H744" stroke="#E9EEF5"/><path d="M108 502H744" stroke="#EFF3F8"/><path d="M108 444H744" stroke="#EFF3F8"/><path d="M108 386H744" stroke="#EFF3F8"/>
  <path d="M114 530 C190 512, 246 498, 322 506 C398 514, 458 452, 542 460 C626 468, 674 420, 730 432" stroke="#5E9BF5" stroke-width="5" fill="none" stroke-linecap="round"/>
  <circle cx="114" cy="530" r="6" fill="#5E9BF5"/><circle cx="322" cy="506" r="6" fill="#5E9BF5"/><circle cx="542" cy="460" r="6" fill="#5E9BF5"/><circle cx="730" cy="432" r="6" fill="#5E9BF5"/>
  <rect x="804" y="302" width="572" height="324" rx="28" fill="#FFFFFF" stroke="#E9EDF3"/>
  <text x="836" y="346" fill="#1F2A37" font-family="Pretendard, Apple SD Gothic Neo, sans-serif" font-size="24" font-weight="800">가장 많이 느낀 감정</text>
  <rect x="836" y="388" width="118" height="34" rx="17" fill="#FFF7D6"/><text x="870" y="409" fill="#77630F" font-family="Pretendard, Apple SD Gothic Neo, sans-serif" font-size="14" font-weight="700">불안 4회</text>
  <rect x="966" y="388" width="118" height="34" rx="17" fill="#EAF3FF"/><text x="1000" y="409" fill="#4E86E6" font-family="Pretendard, Apple SD Gothic Neo, sans-serif" font-size="14" font-weight="700">차분 3회</text>
  <rect x="1096" y="388" width="134" height="34" rx="17" fill="#EEF9EF"/><text x="1128" y="409" fill="#4A915B" font-family="Pretendard, Apple SD Gothic Neo, sans-serif" font-size="14" font-weight="700">지침 3회</text>
  <rect x="836" y="456" width="508" height="96" rx="20" fill="#F8FAFF" stroke="#E7EDF8"/>
  <text x="860" y="492" fill="#556171" font-family="Pretendard, Apple SD Gothic Neo, sans-serif" font-size="14" font-weight="500">불안이 가장 자주 기록되었지만, 차분함과 지침이 함께 나타나</text>
  <text x="860" y="516" fill="#556171" font-family="Pretendard, Apple SD Gothic Neo, sans-serif" font-size="14" font-weight="500">감정이 한 방향으로만 흐르지 않았음을 보여줍니다.</text>
  <rect x="60" y="654" width="1316" height="292" rx="28" fill="#FFFDF8" stroke="#F0E6C7"/>
  <text x="92" y="700" fill="#1F2A37" font-family="Pretendard, Apple SD Gothic Neo, sans-serif" font-size="24" font-weight="800">월간 위험도 추이</text>
  <text x="92" y="728" fill="#8E8A73" font-family="Pretendard, Apple SD Gothic Neo, sans-serif" font-size="13" font-weight="600">날짜별 중위험 / 고위험 기록 빈도</text>
  <path d="M108 884H1324" stroke="#EEE7D6"/>
  <rect x="142" y="844" width="34" height="40" rx="10" fill="#FFD645"/><rect x="210" y="822" width="34" height="62" rx="10" fill="#FFD645"/><rect x="278" y="852" width="34" height="32" rx="10" fill="#F5A1A1"/><rect x="414" y="838" width="34" height="46" rx="10" fill="#FFD645"/><rect x="618" y="854" width="34" height="30" rx="10" fill="#F5A1A1"/>
  <rect x="92" y="792" width="28" height="12" rx="6" fill="#FFD645"/><text x="130" y="802" fill="#8A7B4C" font-family="Pretendard, Apple SD Gothic Neo, sans-serif" font-size="12" font-weight="700">중위험</text>
  <rect x="212" y="792" width="28" height="12" rx="6" fill="#F5A1A1"/><text x="252" y="802" fill="#8A7B4C" font-family="Pretendard, Apple SD Gothic Neo, sans-serif" font-size="12" font-weight="700">고위험</text>
</svg>
